# xmcd CD database file
#
# Track frame offsets:
#	150
#	10449
#	31617
#	55350
#	76821
#	96945
#	105096
#	130010
#	152867
#	198360
#	220975
#	239315
#	258498
#	283025
#
# Disc length: 3893 seconds
#
# Revision: 0
# Processed by: cddbd v1.5.1PL2 Copyright (c) Steve Scherf et al.
# Submitted via: CDex 1.51
#
DISCID=b50f330e
DTITLE=Home Made 家族 - 毎日が映画のようなヒトコマ
DYEAR=2002
DGENRE=Hip-Hop
TTITLE0=開演(featuring 落合健太郎)
TTITLE1=HOME MADE 家族 pt.1
TTITLE2=THIS IS THIS, THAT IS THAT
TTITLE3=RUN(produced by DJ CAUJOON)
TTITLE4=出番デスヨ!!!!(featuring KENZAN(from 班).B-HUNTER(from ASIAN PIMPS))
TTITLE5=have a break, have a kit cut(featuring DJ TOYODA)
TTITLE6=ホンネとタテマエ(produced by GORIN)
TTITLE7=WHO'S DA エンタテーナー!?(featuring シーモネーター(from シーモネーター and DJ TAKI-SHIT))
TTITLE8=灰・脳 the show remix(produced by MASAO"Swing"OKAMOTO)
TTITLE9=この場獲るBATTLE(featuring B-NINJAH and AK-69)
TTITLE10=百年の恋も燃える(produced by R010, SEIGHT chorus by MICKY)
TTITLE11=I.N.G.(produced by Mr.Swing)
TTITLE12=目をそらすな(produced by Atsushi)
TTITLE13=終演
EXTD=YEAR: 2002
EXTT0=
EXTT1=
EXTT2=
EXTT3=
EXTT4=
EXTT5=
EXTT6=
EXTT7=
EXTT8=
EXTT9=
EXTT10=
EXTT11=
EXTT12=
EXTT13=
PLAYORDER=
